<mxfile host="Electron" agent="Mozilla/5.0 (Windows NT 10.0; Win64; x64) AppleWebKit/537.36 (KHTML, like Gecko) draw.io/26.2.2 Chrome/134.0.6998.178 Electron/35.1.2 Safari/537.36" version="26.2.2">
  <diagram name="페이지-1" id="gIBe6M0xCgVan7vtGbGE">
    <mxGraphModel dx="1214" dy="487" grid="1" gridSize="10" guides="1" tooltips="1" connect="1" arrows="1" fold="1" page="1" pageScale="1" pageWidth="827" pageHeight="1169" math="0" shadow="0">
      <root>
        <mxCell id="0" />
        <mxCell id="1" parent="0" />
        <mxCell id="RAoDTftSuyZCWK2BTl0H-1" value="" style="rounded=1;whiteSpace=wrap;html=1;" vertex="1" parent="1">
          <mxGeometry x="95" y="110" width="755" height="310" as="geometry" />
        </mxCell>
        <mxCell id="RAoDTftSuyZCWK2BTl0H-2" value="SendBufferManager" style="text;html=1;align=center;verticalAlign=middle;resizable=0;points=[];autosize=1;strokeColor=none;fillColor=none;" vertex="1" parent="1">
          <mxGeometry x="110" y="130" width="130" height="30" as="geometry" />
        </mxCell>
        <mxCell id="RAoDTftSuyZCWK2BTl0H-4" value="SendBufferChunk1" style="text;html=1;align=center;verticalAlign=middle;resizable=0;points=[];autosize=1;strokeColor=none;fillColor=none;" vertex="1" parent="1">
          <mxGeometry x="142" y="200" width="120" height="30" as="geometry" />
        </mxCell>
        <mxCell id="RAoDTftSuyZCWK2BTl0H-5" value="SendBuffer1" style="rounded=0;whiteSpace=wrap;html=1;" vertex="1" parent="1">
          <mxGeometry x="267" y="190" width="160" height="50" as="geometry" />
        </mxCell>
        <mxCell id="RAoDTftSuyZCWK2BTl0H-6" value="SendBuffer2" style="rounded=0;whiteSpace=wrap;html=1;" vertex="1" parent="1">
          <mxGeometry x="427" y="190" width="160" height="50" as="geometry" />
        </mxCell>
        <mxCell id="RAoDTftSuyZCWK2BTl0H-7" value="..." style="rounded=0;whiteSpace=wrap;html=1;" vertex="1" parent="1">
          <mxGeometry x="587" y="190" width="80" height="50" as="geometry" />
        </mxCell>
        <mxCell id="RAoDTftSuyZCWK2BTl0H-8" value="" style="rounded=0;whiteSpace=wrap;html=1;" vertex="1" parent="1">
          <mxGeometry x="667" y="190" width="80" height="50" as="geometry" />
        </mxCell>
        <mxCell id="RAoDTftSuyZCWK2BTl0H-9" value="" style="rounded=0;whiteSpace=wrap;html=1;" vertex="1" parent="1">
          <mxGeometry x="747" y="190" width="80" height="50" as="geometry" />
        </mxCell>
        <mxCell id="RAoDTftSuyZCWK2BTl0H-10" value="SendBuffer1" style="rounded=0;whiteSpace=wrap;html=1;" vertex="1" parent="1">
          <mxGeometry x="267" y="240" width="160" height="50" as="geometry" />
        </mxCell>
        <mxCell id="RAoDTftSuyZCWK2BTl0H-13" value="" style="rounded=0;whiteSpace=wrap;html=1;" vertex="1" parent="1">
          <mxGeometry x="667" y="240" width="80" height="50" as="geometry" />
        </mxCell>
        <mxCell id="RAoDTftSuyZCWK2BTl0H-14" value="" style="rounded=0;whiteSpace=wrap;html=1;" vertex="1" parent="1">
          <mxGeometry x="747" y="240" width="80" height="50" as="geometry" />
        </mxCell>
        <mxCell id="RAoDTftSuyZCWK2BTl0H-15" value="" style="rounded=0;whiteSpace=wrap;html=1;" vertex="1" parent="1">
          <mxGeometry x="427" y="240" width="80" height="50" as="geometry" />
        </mxCell>
        <mxCell id="RAoDTftSuyZCWK2BTl0H-16" value="" style="rounded=0;whiteSpace=wrap;html=1;" vertex="1" parent="1">
          <mxGeometry x="507" y="240" width="80" height="50" as="geometry" />
        </mxCell>
        <mxCell id="RAoDTftSuyZCWK2BTl0H-17" value="" style="rounded=0;whiteSpace=wrap;html=1;" vertex="1" parent="1">
          <mxGeometry x="587" y="240" width="80" height="50" as="geometry" />
        </mxCell>
        <mxCell id="RAoDTftSuyZCWK2BTl0H-18" value="SendBufferChunk2" style="text;html=1;align=center;verticalAlign=middle;resizable=0;points=[];autosize=1;strokeColor=none;fillColor=none;" vertex="1" parent="1">
          <mxGeometry x="142" y="250" width="120" height="30" as="geometry" />
        </mxCell>
        <mxCell id="RAoDTftSuyZCWK2BTl0H-19" value="..." style="text;html=1;align=center;verticalAlign=middle;resizable=0;points=[];autosize=1;strokeColor=none;fillColor=none;" vertex="1" parent="1">
          <mxGeometry x="187" y="300" width="30" height="30" as="geometry" />
        </mxCell>
        <mxCell id="RAoDTftSuyZCWK2BTl0H-20" value="" style="rounded=0;whiteSpace=wrap;html=1;" vertex="1" parent="1">
          <mxGeometry x="507" y="290" width="80" height="50" as="geometry" />
        </mxCell>
        <mxCell id="RAoDTftSuyZCWK2BTl0H-21" value="" style="rounded=0;whiteSpace=wrap;html=1;" vertex="1" parent="1">
          <mxGeometry x="587" y="290" width="80" height="50" as="geometry" />
        </mxCell>
        <mxCell id="RAoDTftSuyZCWK2BTl0H-22" value="" style="rounded=0;whiteSpace=wrap;html=1;" vertex="1" parent="1">
          <mxGeometry x="267" y="290" width="80" height="50" as="geometry" />
        </mxCell>
        <mxCell id="RAoDTftSuyZCWK2BTl0H-23" value="" style="rounded=0;whiteSpace=wrap;html=1;" vertex="1" parent="1">
          <mxGeometry x="347" y="290" width="80" height="50" as="geometry" />
        </mxCell>
        <mxCell id="RAoDTftSuyZCWK2BTl0H-24" value="" style="rounded=0;whiteSpace=wrap;html=1;" vertex="1" parent="1">
          <mxGeometry x="427" y="290" width="80" height="50" as="geometry" />
        </mxCell>
        <mxCell id="RAoDTftSuyZCWK2BTl0H-25" value="" style="rounded=0;whiteSpace=wrap;html=1;" vertex="1" parent="1">
          <mxGeometry x="667" y="290" width="80" height="50" as="geometry" />
        </mxCell>
        <mxCell id="RAoDTftSuyZCWK2BTl0H-26" value="" style="rounded=0;whiteSpace=wrap;html=1;" vertex="1" parent="1">
          <mxGeometry x="747" y="290" width="80" height="50" as="geometry" />
        </mxCell>
        <mxCell id="RAoDTftSuyZCWK2BTl0H-27" value="" style="rounded=0;whiteSpace=wrap;html=1;" vertex="1" parent="1">
          <mxGeometry x="507" y="340" width="80" height="50" as="geometry" />
        </mxCell>
        <mxCell id="RAoDTftSuyZCWK2BTl0H-28" value="" style="rounded=0;whiteSpace=wrap;html=1;" vertex="1" parent="1">
          <mxGeometry x="587" y="340" width="80" height="50" as="geometry" />
        </mxCell>
        <mxCell id="RAoDTftSuyZCWK2BTl0H-29" value="" style="rounded=0;whiteSpace=wrap;html=1;" vertex="1" parent="1">
          <mxGeometry x="267" y="340" width="80" height="50" as="geometry" />
        </mxCell>
        <mxCell id="RAoDTftSuyZCWK2BTl0H-30" value="" style="rounded=0;whiteSpace=wrap;html=1;" vertex="1" parent="1">
          <mxGeometry x="347" y="340" width="80" height="50" as="geometry" />
        </mxCell>
        <mxCell id="RAoDTftSuyZCWK2BTl0H-31" value="" style="rounded=0;whiteSpace=wrap;html=1;" vertex="1" parent="1">
          <mxGeometry x="427" y="340" width="80" height="50" as="geometry" />
        </mxCell>
        <mxCell id="RAoDTftSuyZCWK2BTl0H-32" value="" style="rounded=0;whiteSpace=wrap;html=1;" vertex="1" parent="1">
          <mxGeometry x="667" y="340" width="80" height="50" as="geometry" />
        </mxCell>
        <mxCell id="RAoDTftSuyZCWK2BTl0H-33" value="" style="rounded=0;whiteSpace=wrap;html=1;" vertex="1" parent="1">
          <mxGeometry x="747" y="340" width="80" height="50" as="geometry" />
        </mxCell>
      </root>
    </mxGraphModel>
  </diagram>
</mxfile>
